# xmcd
#
# Track frame offsets:
#	150
#	11903
#	23230
#	34657
#	45207
#	55535
#	66817
#	78606
#	89278
#	99808
#	112782
#	124133
#	135692
#	148580
#	158795
#	169519
#	182904
#	193499
#	203908
#	215137
#
# Disc length: 3024 seconds
# Revision: 1
# Processed by: cddbd v1.5.2PL0 Copyright (c) Steve Scherf et al.
# Submitted via: dBpowerAMP V12.0
#
DISCID=120bce14
DTITLE=Robert Johnson - Up Jumped the Devil
DYEAR=1937
DGENRE=Blues
TTITLE0=Hellhound on My Trail
TTITLE1=Crossroad Blues [Version 2]
TTITLE2=Kindhearted Woman Blues [Version 2]
TTITLE3=Love In Vain [Version 2]
TTITLE4=Honeymoon Blues
TTITLE5=Me and the Devil Blues [Version 2]
TTITLE6=Come on in My Kitchen [Version 2]
TTITLE7=Ramblin' on My Mind [Version 2]
TTITLE8=Drunken Hearted Man [Version 2]
TTITLE9=32 20 Blues
TTITLE10=Dead Shrimp Blues
TTITLE11=Phonograph Blues [Version 2]
TTITLE12=When You Got a Good Friend [Version 2]
TTITLE13=Little Queen of Spades [Version 2]
TTITLE14=Stop Breakin Down Blues [Version 2]
TTITLE15=They're Red Hot
TTITLE16=Milkcow's Calf Blues [Version 2]
TTITLE17=Malted Milk
TTITLE18=Walking Blues
TTITLE19=I'm a Steady Rollin' Man
EXTD=
EXTT0=
EXTT1=
EXTT2=
EXTT3=
EXTT4=
EXTT5=
EXTT6=
EXTT7=
EXTT8=
EXTT9=
EXTT10=
EXTT11=
EXTT12=
EXTT13=
EXTT14=
EXTT15=
EXTT16=
EXTT17=
EXTT18=
EXTT19=
PLAYORDER=
